# xmcd
#
# Track frame offsets:
# 150
# 13917
# 27662
# 40159
# 53721
# 68623
# 82802
# 93602
# 106056
# 116808
# 127473
# 139217
# 149594
# 163751
# 177308
# 189640
# 201982
# 212339
# 222494
# 235691
#
# Disc length: 3294 seconds
#
#
# Revision: 0
# Processed by: cddbd v1.5.1PL0 Copyright (c) Steve Scherf et al.
# Submitted via: FreeRIP 2.942 
#
DISCID=310cdc14
DTITLE=B.B. King - Heart and soul
DYEAR=1900
DGENRE=Soul
TTITLE0=Lonely and blue
TTITLE1=Sheakin' around (with you)
TTITLE2=You can't fool my heart
TTITLE3=Story from my heart and soul
TTITLE4=Don't get around much anymore
TTITLE5=You know I love you
TTITLE6=I'm king
TTITLE7=A lonely lover's plea
TTITLE8=My heart belongs to you
TTITLE9=Don't cry anymore
TTITLE10=Please accept my love
TTITLE11=Peace of mind
TTITLE12=I was blind
TTITLE13=On my word of honour
TTITLE14=I'll survive
TTITLE15=If I lost you
TTITLE16=My reward
TTITLE17=I am
TTITLE18=I love you so
TTITLE19=Key to my kingdom
EXTD=
EXTT0=
EXTT1=
EXTT2=
EXTT3=
EXTT4=
EXTT5=
EXTT6=
EXTT7=
EXTT8=
EXTT9=
EXTT10=
EXTT11=
EXTT12=
EXTT13=
EXTT14=
EXTT15=
EXTT16=
EXTT17=
EXTT18=
EXTT19=
PLAYORDER=
